<svg width="30" height="30" viewBox="0 0 30 30" fill="none" xmlns="http://www.w3.org/2000/svg">
<g clip-path="url(#clip0_1_284)">
<path d="M4.68757 0.868219C4.68342 0.863709 4.6792 0.859258 4.67504 0.854806C3.74115 -0.160851 2.18147 -0.274775 1.10132 0.557841C0.595662 0.93839 0.235555 1.47556 0.0873062 2.07037C-0.0789827 2.73775 0.0311932 3.4493 0.397568 4.07392C0.790183 4.74318 1.19322 5.43329 1.60429 6.13686C5.50221 12.8098 9.92026 20.373 13.1019 23.5547C13.3167 23.7696 13.6067 23.8926 13.9105 23.8976C14.0613 23.9002 17.644 23.945 21.2031 22.6564C21.2917 22.6242 21.3742 22.5825 21.4497 22.5329L27.967 29.6115C28.4061 30.0883 29.1474 30.1172 29.6222 29.6798C30.0982 29.2416 30.1288 28.5005 29.6906 28.0245L4.68757 0.868219ZM14.4208 21.5471C11.455 18.3554 7.1289 10.9496 3.62734 4.95509C3.21558 4.25023 2.81171 3.55889 2.41845 2.88846C2.37927 2.82157 2.2599 2.61815 2.51018 2.42978C2.68121 2.28973 2.86824 2.34039 2.97074 2.46258L19.7407 20.6767C17.5209 21.3673 15.3498 21.5157 14.4208 21.5471ZM17.5291 12.4711C15.3977 10.4282 15.4449 6.70485 17.5715 4.66779C19.2683 2.97093 22.256 0.393016 22.3824 0.284129C22.8725 -0.138241 23.6122 -0.083417 24.0345 0.406664C24.4569 0.896744 24.4021 1.6364 23.9121 2.05883C23.8818 2.08496 20.8634 4.68929 19.2282 6.32453C18.6286 6.92409 18.2939 7.72536 18.2858 8.58065C18.2359 10.2985 19.7027 11.7622 21.4197 11.7145C22.275 11.7064 23.0762 11.3718 23.6758 10.7722C25.312 9.1361 27.9154 6.11859 27.9415 6.08831C28.3639 5.59823 29.1036 5.5434 29.5937 5.96577C30.0837 6.38814 30.1386 7.12786 29.7162 7.61794C29.6073 7.74428 27.0294 10.732 25.3325 12.4289C24.2843 13.4779 22.8777 14.0581 21.3875 14.0576C19.9217 14.0576 18.5535 13.4954 17.5291 12.4711V12.4711ZM20.849 7.55316L25.1834 3.16018C25.6377 2.69968 26.3795 2.69464 26.8401 3.14905C27.3006 3.60346 27.3056 4.34517 26.8512 4.80573L22.5168 9.19871C22.0622 9.65939 21.3205 9.66407 20.8601 9.20984C20.3996 8.75543 20.3946 8.01372 20.849 7.55316ZM1.17173 30C0.143126 30.0063 -0.395218 28.7343 0.343388 28.0001L6.8556 21.4879C7.99847 20.4326 9.56712 22.0031 8.51228 23.1447L2.00007 29.6569C1.77134 29.8857 1.47156 30 1.17173 30V30Z" fill="#FFA800"/>
</g>
<defs>
<clipPath id="clip0_1_284">
<rect width="30" height="30" fill="white"/>
</clipPath>
</defs>
</svg>
