<svg width="32" height="32" viewBox="0 0 32 32" fill="none" xmlns="http://www.w3.org/2000/svg">
<path d="M18.0898 16.3085L11.2046 23.1817C10.6966 23.6888 10.6966 24.511 11.2046 25.0181C11.7126 25.5252 12.5363 25.5252 13.0443 25.0181L20.8493 17.2267C21.3573 16.7196 21.3573 15.8974 20.8493 15.3903L13.0443 7.59885C12.5363 7.09173 11.7126 7.09173 11.2046 7.59885C10.6966 8.10597 10.6966 8.92818 11.2046 9.4353L18.0898 16.3085Z" fill="white"/>
<mask id="mask0_1_274" style="mask-type:alpha" maskUnits="userSpaceOnUse" x="10" y="7" width="12" height="19">
<path d="M18.0898 16.3085L11.2046 23.1817C10.6966 23.6888 10.6966 24.511 11.2046 25.0181C11.7126 25.5252 12.5363 25.5252 13.0443 25.0181L20.8493 17.2267C21.3573 16.7196 21.3573 15.8974 20.8493 15.3903L13.0443 7.59885C12.5363 7.09173 11.7126 7.09173 11.2046 7.59885C10.6966 8.10597 10.6966 8.92818 11.2046 9.4353L18.0898 16.3085Z" fill="white"/>
</mask>
<g mask="url(#mask0_1_274)">
<rect x="0.416992" y="0.725586" width="31.22" height="31.1656" fill="white"/>
</g>
</svg>
