<svg width="37" height="37" viewBox="0 0 37 37" fill="none" xmlns="http://www.w3.org/2000/svg">
<path d="M20.6164 18.2444L12.5844 26.2915C11.9918 26.8852 11.9918 27.8479 12.5844 28.4416C13.1771 29.0354 14.1379 29.0354 14.7305 28.4416L23.8355 19.3194C24.4281 18.7257 24.4281 17.763 23.8355 17.1693L14.7305 8.04711C14.1379 7.45337 13.1771 7.45337 12.5844 8.04711C11.9918 8.64085 11.9918 9.60349 12.5844 10.1972L20.6164 18.2444Z" fill="black"/>
<mask id="mask0_1_79" style="mask-type:alpha" maskUnits="userSpaceOnUse" x="12" y="7" width="13" height="22">
<path d="M20.6164 18.2444L12.5844 26.2915C11.9918 26.8852 11.9918 27.8479 12.5844 28.4416C13.1771 29.0354 14.1379 29.0354 14.7305 28.4416L23.8355 19.3194C24.4281 18.7257 24.4281 17.763 23.8355 17.1693L14.7305 8.04711C14.1379 7.45337 13.1771 7.45337 12.5844 8.04711C11.9918 8.64085 11.9918 9.60349 12.5844 10.1972L20.6164 18.2444Z" fill="white"/>
</mask>
<g mask="url(#mask0_1_79)">
<rect width="36.4199" height="36.4888" fill="black"/>
</g>
</svg>
