<svg width="38" height="37" viewBox="0 0 38 37" fill="none" xmlns="http://www.w3.org/2000/svg">
<path fill-rule="evenodd" clip-rule="evenodd" d="M17.7105 2.36768L13.3742 11.1692L3.67681 12.5893C2.43259 12.7715 1.9367 14.3038 2.83748 15.1828L9.85319 22.029L8.19747 31.701C7.98484 32.9431 9.28616 33.8902 10.3994 33.3036L19.0713 28.7346L27.7431 33.3036C28.8563 33.8902 30.1577 32.9431 29.945 31.701L28.2893 22.029L35.305 15.1828C36.2058 14.3038 35.7099 12.7715 34.4657 12.5893L24.7683 11.1692L20.432 2.36768C19.8753 1.23779 18.2672 1.23779 17.7105 2.36768ZM14.6017 14.0625C15.0954 13.9902 15.5221 13.6793 15.7429 13.2311L19.0713 6.47552L22.3996 13.2311C22.6204 13.6793 23.0471 13.9902 23.5408 14.0625L30.986 15.1528L25.5999 20.4087C25.242 20.758 25.0786 21.2615 25.1631 21.7549L26.4339 29.1783L19.7776 25.6712C19.3354 25.4382 18.8071 25.4382 18.3649 25.6712L11.7086 29.1783L12.9794 21.7549C13.0639 21.2615 12.9005 20.758 12.5426 20.4087L7.15649 15.1528L14.6017 14.0625Z" fill="black"/>
<mask id="mask0_1_81" style="mask-type:alpha" maskUnits="userSpaceOnUse" x="2" y="1" width="34" height="33">
<path fill-rule="evenodd" clip-rule="evenodd" d="M17.7105 2.36768L13.3742 11.1692L3.67681 12.5893C2.43259 12.7715 1.9367 14.3038 2.83748 15.1828L9.85319 22.029L8.19747 31.701C7.98484 32.9431 9.28616 33.8902 10.3994 33.3036L19.0713 28.7346L27.7431 33.3036C28.8563 33.8902 30.1577 32.9431 29.945 31.701L28.2893 22.029L35.305 15.1828C36.2058 14.3038 35.7099 12.7715 34.4657 12.5893L24.7683 11.1692L20.432 2.36768C19.8753 1.23779 18.2672 1.23779 17.7105 2.36768ZM14.6017 14.0625C15.0954 13.9902 15.5221 13.6793 15.7429 13.2311L19.0713 6.47552L22.3996 13.2311C22.6204 13.6793 23.0471 13.9902 23.5408 14.0625L30.986 15.1528L25.5999 20.4087C25.242 20.758 25.0786 21.2615 25.1631 21.7549L26.4339 29.1783L19.7776 25.6712C19.3354 25.4382 18.8071 25.4382 18.3649 25.6712L11.7086 29.1783L12.9794 21.7549C13.0639 21.2615 12.9005 20.758 12.5426 20.4087L7.15649 15.1528L14.6017 14.0625Z" fill="white"/>
</mask>
<g mask="url(#mask0_1_81)">
<rect x="0.859619" width="36.4199" height="36.4888" fill="black"/>
</g>
</svg>
