<svg width="32" height="32" viewBox="0 0 32 32" fill="none" xmlns="http://www.w3.org/2000/svg">
<path fill-rule="evenodd" clip-rule="evenodd" d="M14.6383 2.74796L10.9211 10.2655L2.60831 11.4784C1.54174 11.634 1.11665 12.9428 1.88882 13.6936L7.90284 19.541L6.48352 27.802C6.30125 28.8629 7.41678 29.6718 8.37111 29.1708L15.8048 25.2683L23.2385 29.1708C24.1928 29.6718 25.3083 28.8629 25.126 27.802L23.7067 19.541L29.7208 13.6936C30.4929 12.9428 30.0678 11.634 29.0013 11.4784L20.6885 10.2655L16.9713 2.74796C16.4941 1.78291 15.1155 1.78291 14.6383 2.74796ZM11.9733 12.7367C12.3966 12.6749 12.7624 12.4094 12.9517 12.0266L15.8048 6.25654L18.6579 12.0266C18.8472 12.4094 19.213 12.6749 19.6362 12.7367L26.0184 13.6679L21.4013 18.1571C21.0945 18.4555 20.9544 18.8855 21.0268 19.3069L22.1162 25.6473L16.4103 22.6518C16.0312 22.4528 15.5783 22.4528 15.1993 22.6518L9.49338 25.6473L10.5827 19.3069C10.6551 18.8855 10.5151 18.4555 10.2083 18.1571L5.59118 13.6679L11.9733 12.7367Z" fill="white"/>
<mask id="mask0_1_276" style="mask-type:alpha" maskUnits="userSpaceOnUse" x="1" y="2" width="30" height="28">
<path fill-rule="evenodd" clip-rule="evenodd" d="M14.6383 2.74796L10.9211 10.2655L2.60831 11.4784C1.54174 11.634 1.11665 12.9428 1.88882 13.6936L7.90284 19.541L6.48352 27.802C6.30125 28.8629 7.41678 29.6718 8.37111 29.1708L15.8048 25.2683L23.2385 29.1708C24.1928 29.6718 25.3083 28.8629 25.126 27.802L23.7067 19.541L29.7208 13.6936C30.4929 12.9428 30.0678 11.634 29.0013 11.4784L20.6885 10.2655L16.9713 2.74796C16.4941 1.78291 15.1155 1.78291 14.6383 2.74796ZM11.9733 12.7367C12.3966 12.6749 12.7624 12.4094 12.9517 12.0266L15.8048 6.25654L18.6579 12.0266C18.8472 12.4094 19.213 12.6749 19.6362 12.7367L26.0184 13.6679L21.4013 18.1571C21.0945 18.4555 20.9544 18.8855 21.0268 19.3069L22.1162 25.6473L16.4103 22.6518C16.0312 22.4528 15.5783 22.4528 15.1993 22.6518L9.49338 25.6473L10.5827 19.3069C10.6551 18.8855 10.5151 18.4555 10.2083 18.1571L5.59118 13.6679L11.9733 12.7367Z" fill="white"/>
</mask>
<g mask="url(#mask0_1_276)">
<rect x="0.193359" y="0.725586" width="31.22" height="31.1656" fill="white"/>
</g>
</svg>
