<svg width="198" height="199" viewBox="0 0 198 199" fill="none" xmlns="http://www.w3.org/2000/svg">
<circle cx="98.881" cy="99.6291" r="98.8693" fill="#342679" fill-opacity="0.7"/>
<path d="M138.709 89.4216C138.444 87.9734 137.582 86.713 136.283 85.8737C135.669 85.4772 135.028 85.1322 134.374 84.8129C137.218 83.9555 139.171 81.0989 138.728 78.1701C138.51 76.736 137.748 75.5027 136.581 74.6968C136.447 74.6041 136.298 74.5449 136.157 74.4664C136.155 74.4496 136.156 74.4329 136.153 74.4162C135.936 72.9821 135.174 71.7488 134.006 70.9429C132.795 70.1061 131.292 69.828 129.785 70.1511C129.123 70.2928 128.469 70.473 127.824 70.6893C128.04 70.0443 128.221 69.3903 128.362 68.7286C128.688 67.2173 128.406 65.7175 127.571 64.5074C126.765 63.3397 125.531 62.5776 124.093 62.3588C124.078 62.3562 124.062 62.3575 124.046 62.3549C123.967 62.2146 123.908 62.0652 123.815 61.9326C123.009 60.765 121.776 60.0029 120.341 59.7853C117.417 59.3399 114.557 61.2941 113.699 64.1405C113.38 63.4865 113.035 62.8454 112.638 62.2313C111.799 60.9324 110.539 60.0711 109.09 59.8059C107.694 59.5523 106.284 59.8844 105.118 60.7444C102.52 62.6561 101.964 66.5337 103.901 69.2114C105.116 70.8901 106.177 72.7207 107.05 74.6505L107.32 75.2478C102.107 74.747 96.9545 76.5686 93.1697 80.3535C92.2543 81.2688 91.4369 82.2884 90.7404 83.3852L59.6996 132.327C58.5126 134.199 58.7791 136.598 60.3458 138.164C61.2573 139.076 62.4519 139.548 63.6608 139.548C64.5272 139.548 65.4013 139.306 66.1814 138.81L115.129 107.77C116.226 107.075 117.246 106.258 118.166 105.336C121.946 101.556 123.765 96.4069 123.264 91.1905L123.863 91.4608C125.793 92.3349 127.623 93.3944 129.303 94.611C130.382 95.3911 131.655 95.7658 132.918 95.7658C134.786 95.7658 136.628 94.9418 137.77 93.3919C138.63 92.2281 138.964 90.8159 138.709 89.4216ZM133.195 82.4776C132.018 82.6643 130.839 82.9282 129.678 83.2449C127.546 82.8355 125.329 82.7763 123.115 83.1084L122.905 83.1406L123.165 82.7879C125.549 79.5579 129.096 77.2368 132.9 76.4219C133.711 76.2455 134.498 76.3871 135.12 76.8158C135.695 77.2149 136.074 77.8328 136.184 78.5576C136.455 80.3458 135.058 82.1777 133.195 82.4776ZM130.325 72.6666C131.138 72.4903 131.924 72.6319 132.545 73.0606C132.831 73.2588 133.068 73.5112 133.248 73.8034C132.953 73.8201 132.658 73.842 132.361 73.9051C127.888 74.8642 123.887 77.4762 121.095 81.2598L119.307 83.6839L116.177 84.1563L126.078 74.2553C127.43 73.5189 128.858 72.9808 130.325 72.6666ZM124.606 66.1513C124.67 65.8539 124.692 65.5591 124.709 65.2656C125.001 65.4458 125.253 65.6814 125.45 65.9672C125.878 66.5877 126.018 67.3756 125.844 68.1866C125.527 69.6581 124.991 71.0858 124.254 72.4362L114.356 82.3347L114.828 79.2052L117.252 77.417C121.035 74.6247 123.647 70.6236 124.606 66.1513ZM116.033 65.3171C116.332 63.4543 118.173 62.0627 119.953 62.3279C120.678 62.4386 121.297 62.8171 121.696 63.3925C122.124 64.013 122.264 64.8009 122.09 65.6119C121.274 69.4148 118.953 72.9627 115.724 75.3469L115.371 75.607L115.404 75.3971C115.737 73.1829 115.678 70.966 115.267 68.8329C115.583 67.6717 115.847 66.4912 116.033 65.3171ZM105.985 67.6987C104.879 66.1693 105.186 63.8868 106.643 62.8132C107.107 62.4733 107.64 62.2944 108.18 62.2944C108.328 62.2944 108.478 62.3085 108.627 62.3356C109.369 62.4708 110.025 62.9291 110.476 63.6255C112.588 66.8915 113.455 71.042 112.857 75.0109L112.153 79.6802L109.396 73.5871C108.449 71.4977 107.301 69.5178 105.985 67.6987ZM116.341 103.522C115.559 104.304 114.688 105.001 113.751 105.596L64.8027 136.636C63.9582 137.172 62.8742 137.05 62.1661 136.343C61.4581 135.635 61.3371 134.551 61.8739 133.706L92.9109 84.7601C93.5069 83.8216 94.2047 82.9514 94.9926 82.1622C98.5869 78.5692 103.631 77.0746 108.587 78.0504L111.6 84.7073C111.665 84.8515 111.762 84.9725 111.869 85.0807L111.862 85.0871L113.419 86.6435L113.422 86.6397C113.531 86.7478 113.653 86.8418 113.798 86.9061L120.457 89.9186C121.438 94.8801 119.94 99.9226 116.341 103.522ZM135.698 91.8689C134.623 93.3249 132.341 93.63 130.813 92.528C128.993 91.2111 127.013 90.0627 124.925 89.1178L118.832 86.3603L123.501 85.6561C127.469 85.0549 131.622 85.9252 134.887 88.0377C135.583 88.4883 136.04 89.1436 136.177 89.8864C136.301 90.5738 136.131 91.278 135.698 91.8689Z" fill="white"/>
<path d="M101.722 96.7879C99.0599 94.1256 97.5936 90.5854 97.5936 86.8199V86.7555L95.0189 86.8199C95.0189 91.2728 96.753 95.4593 99.9019 98.6082C103.051 101.757 107.237 103.491 111.755 103.491L111.69 100.916C107.925 100.916 104.384 99.4502 101.722 96.7879Z" fill="white"/>
<path d="M94.4203 103.647C92.3155 101.542 91.1569 98.7433 91.1569 95.767H88.5822C88.5822 99.4321 90.0085 102.876 92.6 105.467L93.0429 105.91C95.6343 108.502 99.078 109.928 102.743 109.928V107.353C99.7667 107.353 96.968 106.195 94.8632 104.09L94.4203 103.647Z" fill="white"/>
<path d="M87.5612 110.949C85.7293 109.116 84.72 106.681 84.72 104.09V103.491H82.1453V104.09C82.1453 107.369 83.4223 110.451 85.7409 112.769C88.0594 115.088 91.1413 116.365 94.4202 116.365H95.0189V113.79H94.4202C91.8288 113.79 89.3944 112.781 87.5612 110.949Z" fill="white"/>
<path d="M79.1934 119.317C78.6063 118.73 78.2832 117.948 78.2832 117.119V115.077H75.7085V117.119C75.7085 118.637 76.2994 120.063 77.3731 121.137C78.4467 122.211 79.8731 122.802 81.3909 122.802H83.4327V120.227H81.3909C80.5618 120.227 79.7804 119.904 79.1934 119.317Z" fill="white"/>
</svg>
