<svg width="199" height="199" viewBox="0 0 199 199" fill="none" xmlns="http://www.w3.org/2000/svg">
<circle cx="99.3009" cy="99.6291" r="98.8693" fill="#342679" fill-opacity="0.7"/>
<g clip-path="url(#clip0_1_240)">
<path d="M140.193 71.748C139.95 71.4004 139.599 71.1727 139.217 71.079C138.438 70.8718 129.557 68.6412 123.329 72.9259C122.922 73.2062 122.538 73.5083 122.175 73.8266C122.565 70.8211 122.768 67.7773 122.768 64.7101C122.768 63.7816 122.016 63.029 121.087 63.029C120.159 63.029 119.406 63.7816 119.406 64.7101C119.406 66.3769 119.344 68.0298 119.225 69.6674C115.795 64.4068 108.992 62.0912 107.821 61.7248C107.453 61.5904 107.036 61.5835 106.642 61.7351C106.241 61.8892 105.932 62.1807 105.75 62.5356C105.398 63.1888 101.734 70.2298 103.382 76.8749C103.239 76.8707 103.093 76.8834 102.948 76.9175C102.543 77.0124 102.207 77.2463 101.979 77.5568C101.53 78.1416 96.9694 84.2564 97.3097 90.9146C95.7171 89.768 94.3834 89.0668 93.9372 88.8429C93.5907 88.6496 93.1746 88.5774 92.7568 88.6694C92.3589 88.7568 92.0249 88.9789 91.7926 89.2774C91.5908 89.5355 87.6986 94.589 87.1428 100.56C85.9506 99.3671 84.948 98.5802 84.5847 98.3061C84.287 98.0588 83.8995 97.909 83.4859 97.9189C83.051 97.9254 82.6569 98.0966 82.3621 98.3727C81.772 98.9047 75.0513 105.138 75.2491 112.7C75.3944 118.194 79.1926 122.713 81.5901 125.028C74.8484 128.266 67.4522 130.416 59.6117 131.242C58.6886 131.339 58.0188 132.166 58.116 133.09C58.2069 133.953 58.9364 134.595 59.7859 134.595C59.8448 134.595 59.9041 134.592 59.964 134.585C68.2784 133.71 76.2835 131.362 83.651 127.719C85.1691 130.184 89.2827 135.915 95.4348 137.313C96.4237 137.538 97.4112 137.636 98.3837 137.636C104.501 137.636 109.994 133.739 111.176 132.839C111.335 132.738 111.479 132.608 111.6 132.453C111.992 131.948 112.064 131.264 111.785 130.689C111.644 130.397 109 125.04 104.227 121.785C106.354 122.866 108.857 123.7 111.525 123.7C111.757 123.7 111.991 123.693 112.225 123.681C119.42 123.279 124.787 116.608 125.803 115.249C125.928 115.109 126.03 114.946 126.103 114.767C126.344 114.172 126.226 113.491 125.798 113.013C125.629 112.824 123.075 110.013 119.309 107.991C121.356 107.898 123.491 107.468 125.47 106.447C131.88 103.14 134.048 94.8661 134.421 93.2064C134.476 93.0316 134.503 92.8463 134.497 92.6569C134.48 92.0101 134.093 91.431 133.502 91.1672C133.326 91.0884 131.264 90.185 128.407 89.6232C130.141 89.2525 131.875 88.6007 133.438 87.5242C139.531 83.3301 140.389 74.295 140.486 72.9063C140.532 72.5114 140.439 72.0989 140.193 71.748ZM119.933 89.6815C119.256 89.8588 118.585 90.0891 117.928 90.3811C118.06 90.0427 118.19 89.7032 118.317 89.3627C118.746 89.462 119.293 89.5756 119.933 89.6815ZM108.11 65.4016C110.554 66.3763 115.599 68.8514 117.274 73.1792C118.952 77.5152 117.016 82.727 115.931 85.0837C114.753 84.5864 112.948 83.7093 111.225 82.4137C110.419 81.5315 109.562 80.752 108.732 80.0792C108.021 79.2281 107.416 78.2724 107.003 77.2059C105.334 72.8889 107.095 67.7546 108.11 65.4016ZM115.122 88.3812C115.043 88.5909 114.967 88.8017 114.886 89.0103C114.822 88.7346 114.75 88.463 114.669 88.196C114.829 88.2633 114.981 88.3251 115.122 88.3812ZM103.848 80.7631C104.544 81.1809 105.461 81.7798 106.424 82.5405C107.197 83.4157 108.046 84.1917 108.916 84.8698C110.175 86.2875 111.236 87.9834 111.643 89.9124C112.602 94.4617 109.854 99.2946 108.403 101.446C106.234 100.083 101.823 96.8094 100.859 92.2357C99.9053 87.7079 102.468 82.923 103.848 80.7631ZM104.981 103.175C105.554 103.596 106.089 103.956 106.551 104.248C105.942 105.082 105.313 105.901 104.666 106.705C104.898 105.568 105.021 104.381 104.981 103.175ZM93.6338 92.5196C95.8896 93.8747 100.472 97.129 101.429 101.669C102.388 106.219 99.6392 111.052 98.189 113.203C96.0193 111.84 91.6085 108.566 90.6446 103.993C89.6902 99.4605 92.2539 94.6774 93.6338 92.5196ZM98.5428 117.811C99.3122 118.516 100.549 119.557 102.12 120.572C101.266 120.167 100.359 119.841 99.4005 119.624C98.5132 119.422 97.6257 119.327 96.7489 119.316C97.3546 118.824 97.9526 118.323 98.5428 117.811ZM95.8997 115.721C94.3892 117.007 92.8197 118.227 91.1951 119.376C92.1001 117.615 92.7957 115.617 92.9628 113.481C94.0157 114.409 95.0457 115.158 95.8997 115.721ZM78.6105 112.611C78.4894 107.983 81.8737 103.74 83.6203 101.865C85.5946 103.606 89.5148 107.633 89.6371 112.271C89.7602 116.919 86.1849 121.177 84.3703 123.031C82.4821 121.299 78.7341 117.284 78.6105 112.611ZM108.067 130.921C105.878 132.357 100.897 135.105 96.1797 134.035C91.5066 132.972 88.1276 128.48 86.718 126.276C88.9361 124.757 93.9746 121.84 98.6561 122.902C103.348 123.967 106.693 128.655 108.067 130.921ZM122.286 114.261C120.609 116.199 116.705 120.063 112.038 120.323C107.413 120.582 103.073 117.321 101.15 115.63C102.831 113.606 106.743 109.569 111.376 109.311C116.019 109.053 120.378 112.501 122.286 114.261ZM130.806 93.7403C130.067 96.1939 128.082 101.315 123.928 103.459C119.811 105.582 114.519 104.38 112.073 103.622C112.78 101.087 114.702 95.8056 118.826 93.6777C122.958 91.5457 128.347 92.913 130.806 93.7403ZM131.531 84.7543C127.702 87.3911 122.183 86.7144 119.639 86.204C120.062 83.6766 121.386 78.3457 125.236 75.6953C129.05 73.071 134.452 73.5955 136.976 74.038C136.593 76.6415 135.354 82.1231 131.531 84.7543Z" fill="white"/>
</g>
<defs>
<clipPath id="clip0_1_240">
<rect width="82.3911" height="82.3911" fill="white" transform="translate(58.1054 58.4335)"/>
</clipPath>
</defs>
</svg>
