<svg width="198" height="198" viewBox="0 0 198 198" fill="none" xmlns="http://www.w3.org/2000/svg">
<circle cx="98.8693" cy="98.8693" r="98.8693" fill="#342679" fill-opacity="0.7"/>
<g clip-path="url(#clip0_1_246)">
<path d="M126.444 88.1875C127.704 89.2066 128.858 90.3532 129.843 91.6003C130.802 92.8072 131.6 94.1079 132.197 95.4757C133.9 99.3713 133.719 103.059 132.465 106.485C131.244 109.811 129.018 112.855 126.551 115.584C126.518 115.617 126.484 115.651 126.45 115.684C124.466 117.582 122.186 119.178 119.605 120.465C117.023 121.759 114.147 122.738 110.976 123.402C108.099 124.005 104.961 124.347 101.569 124.428C98.1893 124.508 94.5686 124.32 90.7066 123.871C88.1989 123.583 85.8656 123.167 83.7066 122.637C81.541 122.108 79.5496 121.457 77.7393 120.686C75.3791 119.687 72.2345 117.796 69.6598 115.557C67.5612 113.727 65.7978 111.635 65.0536 109.523C64.7854 108.758 64.6446 107.994 64.6379 107.263C64.6312 106.143 64.9463 105.111 65.6034 104.226C66.2403 103.374 67.179 102.697 68.4328 102.254C69.4587 101.892 70.7125 101.684 72.2077 101.678H72.2345C82.0908 101.845 87.2535 97.0581 92.3426 92.3445C96.8416 88.1741 101.28 84.0573 108.689 82.9912C111.814 82.542 114.952 82.8236 117.922 83.6952C121.013 84.6004 123.923 86.1492 126.444 88.1875ZM119.296 68.0593C121.073 68.5354 122.803 69.1724 124.452 69.9568C126.122 70.7547 127.731 71.7068 129.246 72.793C133.631 75.9376 136.488 79.4711 138.218 83.5678C139.934 87.6243 140.517 92.1903 140.363 97.4403C140.283 100.203 139.927 102.925 139.371 105.419C138.788 108.034 137.976 110.401 137.011 112.325C136.991 112.359 136.97 112.399 136.95 112.432C131.741 122.758 120.939 128.739 108.964 130.938C102.903 132.051 96.5466 132.192 90.4652 131.434C84.3637 130.677 78.5237 129.014 73.5353 126.519C73.5018 126.499 73.4682 126.486 73.4347 126.466C65.5766 122.51 59.8036 116.462 58.3621 108.597C58.181 107.592 58.0805 106.572 58.0335 105.486C57.9866 104.447 57.9933 103.32 58.0067 102.067C58.0268 100.417 58.0469 98.4795 58.3218 96.6223C58.6169 94.6309 59.1935 92.7066 60.3333 91.2181C61.4933 89.7028 63.0823 88.6568 64.9932 87.9662C66.817 87.3159 68.929 86.994 71.2556 86.9203C71.2958 86.9203 71.3361 86.9203 71.383 86.9203C73.6225 87.0745 75.7814 86.7862 77.86 86.0889C79.9653 85.3848 82.0103 84.2584 84.0084 82.7498C86.1539 81.1339 88.1386 79.4242 90.083 77.7614C98.2496 70.7547 105.625 64.4186 119.296 68.0593ZM123.353 72.2566C121.831 71.5325 120.255 70.9425 118.646 70.5201C106.262 67.2212 99.3693 73.1417 91.7391 79.6857C89.7545 81.3887 87.7229 83.1387 85.5438 84.7747C83.3312 86.4442 81.0448 87.6913 78.6713 88.4892C76.2843 89.2871 73.8169 89.6224 71.2623 89.4547C69.2173 89.5285 67.3869 89.8034 65.8582 90.3532C64.3965 90.8762 63.2097 91.6539 62.3582 92.7603C61.5201 93.8532 61.0843 95.3752 60.8429 96.9911C60.5881 98.7343 60.5613 100.551 60.5479 102.087C60.5345 103.287 60.5345 104.366 60.5747 105.386C60.6149 106.358 60.7021 107.263 60.863 108.141C62.1436 115.148 67.4003 120.586 74.5947 124.206C74.6282 124.22 74.655 124.233 74.6818 124.247C79.4155 126.613 84.9672 128.189 90.787 128.913C96.6337 129.637 102.728 129.503 108.515 128.444C119.772 126.379 129.89 120.82 134.698 111.279C134.711 111.252 134.724 111.226 134.738 111.192C135.616 109.435 136.36 107.263 136.897 104.863C137.426 102.516 137.755 99.9613 137.829 97.3732C137.97 92.4719 137.44 88.2478 135.878 84.5534C134.329 80.8993 131.747 77.7144 127.758 74.8581C126.397 73.8792 124.915 73.0009 123.353 72.2566ZM121.831 99.15C121.831 100.927 120.852 102.502 119.27 103.616C117.821 104.635 115.837 105.265 113.671 105.265C111.505 105.265 109.521 104.635 108.072 103.616C106.49 102.502 105.511 100.927 105.511 99.15C105.511 97.3732 106.49 95.7976 108.072 94.6846C109.521 93.6654 111.505 93.0352 113.671 93.0352C115.837 93.0352 117.821 93.6654 119.27 94.6846C120.852 95.7976 121.831 97.3732 121.831 99.15ZM117.808 101.537C118.72 100.893 119.283 100.048 119.283 99.15C119.283 98.2516 118.72 97.4068 117.808 96.7631C116.769 96.0323 115.307 95.5763 113.671 95.5763C112.035 95.5763 110.573 96.0323 109.534 96.7631C108.622 97.4068 108.059 98.2516 108.059 99.15C108.059 100.048 108.622 100.893 109.534 101.537C110.573 102.268 112.035 102.724 113.671 102.724C115.307 102.717 116.769 102.268 117.808 101.537ZM127.899 93.129C127.034 92.0428 126.015 91.0304 124.888 90.1118C122.615 88.2814 120 86.8867 117.225 86.0687C114.589 85.2977 111.807 85.0429 109.038 85.4452C102.393 86.3973 98.2362 90.2526 94.0255 94.1549C88.5744 99.2104 83.0429 104.333 72.201 104.152C71.0142 104.159 70.0353 104.313 69.2576 104.594C68.4798 104.869 67.93 105.252 67.588 105.714C67.2662 106.143 67.112 106.673 67.112 107.256C67.112 107.699 67.2058 108.182 67.3869 108.698C67.9769 110.361 69.4721 112.111 71.2891 113.686C73.6761 115.765 76.5525 117.495 78.6981 118.407C80.381 119.124 82.245 119.727 84.2833 120.23C86.3283 120.733 88.561 121.122 90.9815 121.404C94.7631 121.846 98.2697 122.021 101.515 121.947C104.74 121.873 107.724 121.544 110.466 120.975C113.436 120.351 116.112 119.446 118.492 118.252C120.838 117.079 122.917 115.624 124.727 113.894C127.007 111.38 129.045 108.604 130.131 105.64C131.184 102.771 131.338 99.6931 129.917 96.4614C129.407 95.2813 128.723 94.1683 127.899 93.129Z" fill="white"/>
</g>
<defs>
<clipPath id="clip0_1_246">
<rect width="82.39" height="64.9103" fill="white" transform="translate(58 67)"/>
</clipPath>
</defs>
</svg>
