<svg width="198" height="198" viewBox="0 0 198 198" fill="none" xmlns="http://www.w3.org/2000/svg">
<circle cx="98.881" cy="99.0919" r="98.8693" fill="#342679" fill-opacity="0.7"/>
<g clip-path="url(#clip0_1_235)">
<path d="M115.418 125.325C114.734 125.325 114.116 124.876 113.895 124.232C113.686 123.624 113.874 122.93 114.357 122.506C114.883 122.044 115.672 121.978 116.267 122.348C116.82 122.692 117.119 123.362 117.001 124.003C116.863 124.758 116.186 125.325 115.418 125.325Z" fill="white"/>
<path d="M128.363 87.5519C125.346 83.5175 121.266 80.6693 116.873 79.5317C113.952 78.7757 110.421 78.8393 106.376 79.7213L106.375 79.7203C106.357 79.7247 106.319 79.7334 106.258 79.747C106.152 79.7683 106.048 79.7926 105.946 79.8164C105.692 79.8758 105.301 79.9694 104.882 80.0785C104.332 80.2209 103.773 80.345 103.216 80.4486C103.207 80.032 103.192 79.6038 103.167 79.166C103.643 73.8606 105.797 69.3007 109.587 65.5855C112.867 62.3702 116.214 61.0156 116.244 61.0035C117.071 60.6784 117.478 59.7443 117.153 58.9172C116.828 58.0899 115.894 57.6831 115.067 58.008C114.91 58.0699 111.174 59.5626 107.436 63.188C105.456 65.1085 103.258 67.8599 101.739 71.5527C100.928 69.2546 99.7077 67.055 97.8981 65.2474C90.6041 57.9615 76.9344 60.2301 76.129 60.3716C76.1283 60.3717 76.1277 60.3717 76.1271 60.3719C75.5374 60.4662 75.0421 60.8781 74.8675 61.4491C74.8418 61.5332 74.8212 61.6118 74.8094 61.6773C74.7169 62.197 72.8432 73.1629 77.5639 80.7533C71.0311 83.886 64.1268 91.6369 64.1268 104.518C64.1268 109.088 65.5191 114.673 68.0475 120.244C70.5245 125.703 73.87 130.691 77.4673 134.289C81.3869 138.213 85.4142 140.287 89.1135 140.287C91.28 140.287 93.512 139.959 95.5691 139.339C97.5954 138.726 99.7476 138.687 101.794 139.226C101.801 139.228 101.808 139.23 101.815 139.232C101.942 139.265 102.068 139.301 102.194 139.339C104.251 139.959 106.483 140.287 108.649 140.287C112.189 140.287 116.047 138.379 119.805 134.769C127.561 127.33 133.636 114.042 133.636 104.518C133.635 98.0295 131.812 92.1626 128.363 87.5519ZM95.623 67.5246C98.6995 70.5978 99.7032 75.2867 99.9339 79.2284C99.8769 79.9521 99.847 83.1135 99.847 83.1135L87.6413 70.9208C87.0124 70.2927 85.9935 70.293 85.3656 70.9221C84.7375 71.5508 84.738 72.5697 85.3667 73.1979L97.6572 85.4753C93.454 85.7004 86.1814 85.3811 81.962 81.1662C76.894 76.1037 77.4511 66.6571 77.8219 63.3883C81.0935 63.0179 90.5536 62.4605 95.623 67.5246ZM117.576 132.447C114.428 135.47 111.34 137.069 108.648 137.069C106.819 137.069 104.857 136.781 103.124 136.258C102.963 136.21 102.802 136.164 102.64 136.121C102.638 136.121 102.635 136.12 102.633 136.119C100.005 135.423 97.24 135.471 94.6381 136.258C92.9043 136.781 90.9421 137.069 89.1127 137.069C86.2862 137.069 83.0464 135.321 79.7431 132.014C72.7906 125.06 67.3446 112.982 67.3446 104.518C67.3446 92.6914 73.7905 85.8301 79.6053 83.3605C79.6325 83.3882 79.66 83.4158 79.6875 83.4434C84.0985 87.8495 90.874 88.7551 95.7006 88.755C98.7621 88.755 101.043 88.4083 101.431 88.3237C102.716 88.0424 102.685 87.4433 102.764 87.0735C102.765 87.0689 102.767 87.0642 102.768 87.0595C102.769 87.0544 102.77 87.0491 102.771 87.0439C102.772 87.0373 102.773 87.0307 102.775 87.024C102.775 87.0211 102.776 87.0183 102.776 87.0154C102.806 86.8474 103.023 85.5878 103.144 83.7032C103.238 83.7039 103.334 83.6963 103.43 83.6799C104.184 83.5505 104.943 83.3872 105.69 83.1939C105.977 83.1191 106.255 83.051 106.485 82.9962C113.124 85.3111 119.689 92.7775 119.689 104.519C119.689 107.958 118.802 112.059 117.123 116.38C116.801 117.208 117.212 118.14 118.04 118.462C118.232 118.537 118.429 118.572 118.623 118.572C119.267 118.572 119.876 118.182 120.123 117.545C121.944 112.857 122.907 108.353 122.907 104.519C122.907 93.8236 117.989 86.2125 112.052 82.2294C113.529 82.1986 114.871 82.338 116.067 82.6474C122.978 84.4373 130.417 92.045 130.417 104.518C130.416 113.127 124.657 125.655 117.576 132.447Z" fill="white"/>
</g>
<defs>
<clipPath id="clip0_1_235">
<rect width="82.3911" height="82.3911" fill="white" transform="translate(57.6854 57.8964)"/>
</clipPath>
</defs>
</svg>
